<svg width="318.453125px" height="125.75900878906249px" xmlns="http://www.w3.org/2000/svg" viewBox="90.7734375 12.120495605468754 318.453125 125.75900878906249" style="background: rgba(0, 0, 0, 0);" preserveAspectRatio="xMidYMid"><defs><filter id="editing-hole" x="-100%" y="-100%" width="300%" height="300%"><feFlood flood-color="#000000" result="black"></feFlood><feMorphology operator="dilate" radius="2" in="SourceGraphic" result="erode"></feMorphology><feGaussianBlur in="erode" stdDeviation="4" result="blur"></feGaussianBlur><feOffset in="blur" dx="2" dy="2" result="offset"></feOffset><feComposite operator="atop" in="offset" in2="black" result="merge"></feComposite><feComposite operator="in" in="merge" in2="SourceGraphic" result="inner-shadow"></feComposite></filter></defs><g filter="url(#editing-hole)"><g transform="translate(137.48998546600342, 107.0584602355957)"><path d="M5.12 0L5.12-44.80L21.70-44.80L21.70-44.80Q28.22-44.80 33.28-42.14L33.28-42.14L33.28-42.14Q38.34-39.49 41.15-34.40L41.15-34.40L41.15-34.40Q43.97-29.31 43.97-22.40L43.97-22.40L43.97-22.40Q43.97-15.49 41.15-10.40L41.15-10.40L41.15-10.40Q38.34-5.31 33.28-2.66L33.28-2.66L33.28-2.66Q28.22 0 21.70 0L21.70 0L5.12 0ZM11.20-5.50L21.70-5.50L21.70-5.50Q29.18-5.50 33.25-10.08L33.25-10.08L33.25-10.08Q37.31-14.66 37.31-22.40L37.31-22.40L37.31-22.40Q37.31-30.14 33.25-34.72L33.25-34.72L33.25-34.72Q29.18-39.30 21.70-39.30L21.70-39.30L11.20-39.30L11.20-5.50ZM50.43-38.40L50.43-44.80L56.19-44.80L56.19-38.40L50.43-38.40ZM50.43 0L50.43-31.36L56.19-31.36L56.19 0L50.43 0ZM76.67 16L76.67 16Q70.02 16 65.89 13.57L65.89 13.57L65.89 13.57Q61.76 11.14 61.76 6.66L61.76 6.66L61.76 6.66Q61.76 1.73 67.20-0.70L67.20-0.70L67.20-0.70Q64.13-2.24 64.13-4.67L64.13-4.67L64.13-4.67Q64.13-7.74 67.84-9.22L67.84-9.22L67.84-9.22Q65.22-10.82 63.81-13.57L63.81-13.57L63.81-13.57Q62.40-16.32 62.40-19.78L62.40-19.78L62.40-19.78Q62.40-23.23 63.97-26.02L63.97-26.02L63.97-26.02Q65.54-28.80 68.45-30.40L68.45-30.40L68.45-30.40Q71.36-32 75.33-32L75.33-32L75.33-32Q79.55-32 83.01-29.57L83.01-29.57L83.01-29.57Q86.40-31.49 90.82-31.49L90.82-31.49L91.33-31.49L90.62-27.65L89.15-27.65L89.15-27.65Q88.58-27.65 87.49-27.52L87.49-27.52L87.49-27.52Q86.40-27.39 85.57-27.20L85.57-27.20L85.57-27.20Q86.91-25.66 87.62-23.74L87.62-23.74L87.62-23.74Q88.32-21.82 88.32-19.78L88.32-19.78L88.32-19.78Q88.32-16.19 86.75-13.34L86.75-13.34L86.75-13.34Q85.18-10.50 82.24-8.86L82.24-8.86L82.24-8.86Q79.30-7.23 75.33-7.23L75.33-7.23L75.33-7.23Q73.02-7.23 71.10-7.81L71.10-7.81L71.10-7.81Q69.63-7.30 69.63-6.14L69.63-6.14L69.63-6.14Q69.63-4.61 73.15-4.10L73.15-4.10L81.54-2.75L81.54-2.75Q86.78-1.92 89.47 0.26L89.47 0.26L89.47 0.26Q92.16 2.43 92.16 6.27L92.16 6.27L92.16 6.27Q92.16 11.07 88.03 13.54L88.03 13.54L88.03 13.54Q83.90 16 76.67 16L76.67 16ZM75.33-11.84L75.33-11.84Q78.91-11.84 80.86-13.98L80.86-13.98L80.86-13.98Q82.82-16.13 82.82-19.71L82.82-19.71L82.82-19.71Q82.82-23.17 80.86-25.28L80.86-25.28L80.86-25.28Q78.91-27.39 75.33-27.39L75.33-27.39L75.33-27.39Q71.74-27.39 69.82-25.28L69.82-25.28L69.82-25.28Q67.90-23.17 67.90-19.71L67.90-19.71L67.90-19.71Q67.90-16.13 69.82-13.98L69.82-13.98L69.82-13.98Q71.74-11.84 75.33-11.84L75.33-11.84ZM77.18 10.88L77.18 10.88Q81.60 10.88 83.97 9.73L83.97 9.73L83.97 9.73Q86.34 8.58 86.34 6.40L86.34 6.40L86.34 6.40Q86.34 4.74 84.90 3.74L84.90 3.74L84.90 3.74Q83.46 2.75 80.58 2.18L80.58 2.18L71.62 0.64L71.62 0.64Q69.70 1.54 68.48 2.85L68.48 2.85L68.48 2.85Q67.26 4.16 67.26 5.76L67.26 5.76L67.26 5.76Q67.26 8.38 69.89 9.63L69.89 9.63L69.89 9.63Q72.51 10.88 77.18 10.88L77.18 10.88ZM95.87-38.40L95.87-44.80L101.63-44.80L101.63-38.40L95.87-38.40ZM95.87 0L95.87-31.36L101.63-31.36L101.63 0L95.87 0ZM120.26 0.64L120.26 0.64Q116.10 0.64 114.08-1.54L114.08-1.54L114.08-1.54Q112.06-3.71 112.06-6.85L112.06-6.85L112.06-26.88L106.69-26.88L107.20-31.36L112.06-31.36L112.06-39.10L117.82-39.68L117.82-31.36L126.08-31.36L126.08-26.88L117.82-26.88L117.82-10.37L117.82-10.37Q117.82-7.10 118.21-5.89L118.21-5.89L118.21-5.89Q118.59-4.67 119.84-4.32L119.84-4.32L119.84-4.32Q121.09-3.97 124.42-3.97L124.42-3.97L125.89-3.97L125.44 0.64L120.26 0.64ZM138.30 0.64L138.30 0.64Q133.95 0.64 131.30-1.92L131.30-1.92L131.30-1.92Q128.64-4.48 128.64-8.45L128.64-8.45L128.64-8.45Q128.64-14.40 134.27-16.96L134.27-16.96L134.27-16.96Q139.90-19.52 147.39-19.65L147.39-19.65L147.39-19.65Q147.39-23.87 145.76-25.38L145.76-25.38L145.76-25.38Q144.13-26.88 140.54-26.88L140.54-26.88L140.54-26.88Q138.56-26.88 136.58-26.27L136.58-26.27L136.58-26.27Q134.59-25.66 132.29-24.06L132.29-24.06L131.46-28.74L131.46-28.74Q133.38-30.21 136.19-31.10L136.19-31.10L136.19-31.10Q139.01-32 142.08-32L142.08-32L142.08-32Q146.11-32 148.51-30.59L148.51-30.59L148.51-30.59Q150.91-29.18 152.03-25.92L152.03-25.92L152.03-25.92Q153.15-22.66 153.15-16.96L153.15-16.96L153.15-10.56L153.15-10.56Q153.15-8 153.38-6.69L153.38-6.69L153.38-6.69Q153.60-5.38 154.37-4.67L154.37-4.67L154.37-4.67Q155.14-3.97 156.74-3.97L156.74-3.97L157.31-3.97L156.42 0.64L155.97 0.64L155.97 0.64Q153.28 0.64 151.74 0.13L151.74 0.13L151.74 0.13Q150.21-0.38 149.41-1.34L149.41-1.34L149.41-1.34Q148.61-2.30 147.90-3.97L147.90-3.97L147.90-3.97Q143.94 0.64 138.30 0.64L138.30 0.64ZM139.39-3.97L139.39-3.97Q141.70-3.97 143.84-5.12L143.84-5.12L143.84-5.12Q145.98-6.27 147.39-8.19L147.39-8.19L147.39-15.68L147.39-15.68Q140.48-15.42 137.50-13.86L137.50-13.86L137.50-13.86Q134.53-12.29 134.53-8.77L134.53-8.77L134.53-8.77Q134.53-6.34 135.84-5.15L135.84-5.15L135.84-5.15Q137.15-3.97 139.39-3.97L139.39-3.97ZM169.79 0.64L169.79 0.64Q165.57 0.64 163.62-1.54L163.62-1.54L163.62-1.54Q161.66-3.71 161.66-6.91L161.66-6.91L161.66-48L167.42-48L167.42-10.24L167.42-10.24Q167.42-7.42 167.78-6.14L167.78-6.14L167.78-6.14Q168.13-4.86 169.15-4.42L169.15-4.42L169.15-4.42Q170.18-3.97 172.48-3.97L172.48-3.97L171.65 0.64L169.79 0.64ZM184.90 0.64L184.90 0.64Q180.67 0.64 178.72-1.54L178.72-1.54L178.72-1.54Q176.77-3.71 176.77-6.91L176.77-6.91L176.77-48L182.53-48L182.53-10.24L182.53-10.24Q182.53-7.42 182.88-6.14L182.88-6.14L182.88-6.14Q183.23-4.86 184.26-4.42L184.26-4.42L184.26-4.42Q185.28-3.97 187.58-3.97L187.58-3.97L186.75 0.64L184.90 0.64ZM194.30 15.49L201.54-1.41L188.48-31.36L194.88-31.36L204.67-8.06L213.50-31.36L219.90-31.36L200.70 15.49L194.30 15.49Z" fill="#ba90e4"></path></g></g><style>text {
  font-size: 64px;
  font-family: Arial Black;
  dominant-baseline: central;
  text-anchor: middle;
}</style></svg>